<svg width="18" height="18" viewBox="0 0 18 18" fill="none" xmlns="http://www.w3.org/2000/svg">
<path d="M17.3201 12.5761C17.7555 13.0127 18 13.604 18 14.2206C18 14.8371 17.7555 15.4285 17.3201 15.865L16.6365 16.6531C10.4834 22.5435 -4.48975 7.57514 1.31019 1.403L2.17417 0.651768C2.61124 0.228581 3.19737 -0.00552454 3.80574 9.90198e-05C4.41412 0.00572258 4.99581 0.250623 5.42499 0.681818C5.44828 0.705106 6.84042 2.51333 6.84042 2.51333C7.2535 2.94726 7.48345 3.52368 7.48247 4.12277C7.48149 4.72186 7.24965 5.29753 6.83516 5.73011L5.96517 6.82391C6.44663 7.99366 7.1545 9.05676 8.04812 9.95212C8.94173 10.8475 10.0035 11.5574 11.1723 12.0412L12.273 11.166C12.7056 10.7519 13.2813 10.5204 13.8802 10.5195C14.4792 10.5187 15.0554 10.7486 15.4892 11.1615C15.4892 11.1615 17.2968 12.5528 17.3201 12.5761ZM16.2864 13.6684C16.2864 13.6684 14.4885 12.2854 14.4652 12.2621C14.3105 12.1086 14.1013 12.0225 13.8834 12.0225C13.6654 12.0225 13.4563 12.1086 13.3015 12.2621C13.2812 12.2831 11.7659 13.4904 11.7659 13.4904C11.6637 13.5716 11.5422 13.6249 11.4132 13.6449C11.2843 13.665 11.1523 13.651 11.0303 13.6045C9.5161 13.0408 8.1407 12.1582 6.99731 11.0166C5.85393 9.87498 4.96926 8.50099 4.40324 6.98768C4.35305 6.86406 4.33669 6.72932 4.35584 6.59729C4.37498 6.46526 4.42894 6.34071 4.51218 6.23644C4.51218 6.23644 5.7195 4.72045 5.73978 4.70092C5.89324 4.54615 5.97935 4.33703 5.97935 4.11909C5.97935 3.90114 5.89324 3.69202 5.73978 3.53726C5.71649 3.51472 4.33337 1.71552 4.33337 1.71552C4.17628 1.57466 3.97125 1.49923 3.76032 1.50468C3.54939 1.51013 3.34854 1.59604 3.19893 1.74481L2.33494 2.49605C-1.90382 7.59242 11.0717 19.8473 15.5381 15.6269L16.2225 14.8381C16.3829 14.6895 16.4792 14.4844 16.4911 14.2662C16.503 14.0479 16.4296 13.8335 16.2864 13.6684Z" fill="#007AFF"/>
</svg>
