<svg width="18" height="18" viewBox="0 0 18 18" fill="none" xmlns="http://www.w3.org/2000/svg">
<path d="M14.25 0.749512H3.75C2.7558 0.750703 1.80267 1.14617 1.09966 1.84918C0.396661 2.55218 0.00119089 3.50532 0 4.49951L0 13.4995C0.00119089 14.4937 0.396661 15.4468 1.09966 16.1498C1.80267 16.8529 2.7558 17.2483 3.75 17.2495H14.25C15.2442 17.2483 16.1973 16.8529 16.9003 16.1498C17.6033 15.4468 17.9988 14.4937 18 13.4995V4.49951C17.9988 3.50532 17.6033 2.55218 16.9003 1.84918C16.1973 1.14617 15.2442 0.750703 14.25 0.749512ZM3.75 2.24951H14.25C14.6991 2.2504 15.1376 2.38565 15.5092 2.63786C15.8808 2.89008 16.1684 3.24772 16.335 3.66476L10.5915 9.40901C10.1688 9.83 9.59656 10.0664 9 10.0664C8.40344 10.0664 7.83118 9.83 7.4085 9.40901L1.665 3.66476C1.83161 3.24772 2.11921 2.89008 2.49079 2.63786C2.86236 2.38565 3.30091 2.2504 3.75 2.24951ZM14.25 15.7495H3.75C3.15326 15.7495 2.58097 15.5125 2.15901 15.0905C1.73705 14.6685 1.5 14.0962 1.5 13.4995V5.62451L6.348 10.4695C7.05197 11.1717 8.00569 11.566 9 11.566C9.99431 11.566 10.948 11.1717 11.652 10.4695L16.5 5.62451V13.4995C16.5 14.0962 16.2629 14.6685 15.841 15.0905C15.419 15.5125 14.8467 15.7495 14.25 15.7495Z" fill="#FF6363"/>
</svg>
