<svg width="18" height="18" viewBox="0 0 18 18" fill="none" xmlns="http://www.w3.org/2000/svg">
<g clip-path="url(#clip0_2335_1606)">
<path d="M13.3193 10.3431C13.2842 10.3262 11.972 9.68006 11.7388 9.59614C11.6436 9.56195 11.5416 9.52858 11.4331 9.52858C11.2559 9.52858 11.1071 9.61688 10.9911 9.79034C10.86 9.98518 10.4632 10.449 10.3406 10.5876C10.3246 10.6059 10.3027 10.6277 10.2897 10.6277C10.2779 10.6277 10.0748 10.5441 10.0133 10.5174C8.60566 9.90593 7.53718 8.43549 7.39066 8.18752C7.36974 8.15187 7.36886 8.13568 7.36869 8.13568C7.37383 8.11681 7.42117 8.06935 7.4456 8.04486C7.51707 7.97415 7.59451 7.88093 7.66943 7.79076C7.7049 7.74804 7.74043 7.70526 7.77532 7.66493C7.88403 7.53847 7.93242 7.44028 7.98852 7.32656L8.01792 7.26747C8.1549 6.99531 8.0379 6.76564 8.00009 6.69147C7.96906 6.62941 7.41497 5.29215 7.35606 5.15166C7.2144 4.81264 7.02721 4.65479 6.76709 4.65479C6.74295 4.65479 6.76709 4.65479 6.66587 4.65905C6.54262 4.66425 5.87142 4.75262 5.57465 4.93969C5.25994 5.1381 4.72754 5.77055 4.72754 6.88281C4.72754 7.88386 5.3628 8.82903 5.63555 9.18851C5.64232 9.19756 5.65477 9.21597 5.67283 9.24239C6.71736 10.7678 8.01949 11.8983 9.33951 12.4256C10.6103 12.9333 11.2121 12.9919 11.5542 12.9919H11.5543C11.698 12.9919 11.8131 12.9807 11.9146 12.9707L11.979 12.9645C12.418 12.9256 13.3828 12.4257 13.6022 11.8159C13.7751 11.3355 13.8207 10.8107 13.7057 10.6203C13.6269 10.4908 13.4911 10.4256 13.3193 10.3431Z" fill="#50C800"/>
<path d="M9.15977 0C4.2848 0 0.318727 3.93627 0.318727 8.77459C0.318727 10.3395 0.737519 11.8713 1.53086 13.2119L0.012376 17.6912C-0.0159097 17.7747 0.00512928 17.867 0.066902 17.9299C0.111493 17.9755 0.17198 18 0.233753 18C0.257421 18 0.281266 17.9964 0.304525 17.989L4.97517 16.5048C6.25329 17.1877 7.69785 17.5482 9.15982 17.5482C14.0343 17.5482 18 13.6124 18 8.77459C18 3.93627 14.0343 0 9.15977 0ZM9.15977 15.7204C7.78411 15.7204 6.4517 15.3232 5.30636 14.5716C5.26785 14.5463 5.22314 14.5334 5.17814 14.5334C5.15436 14.5334 5.13051 14.537 5.10731 14.5443L2.7676 15.2881L3.5229 13.0598C3.54733 12.9876 3.53512 12.9081 3.49012 12.8466C2.61793 11.6549 2.15689 10.2469 2.15689 8.77459C2.15689 4.94416 5.29836 1.82782 9.15971 1.82782C13.0206 1.82782 16.1617 4.94416 16.1617 8.77459C16.1618 12.6046 13.0207 15.7204 9.15977 15.7204Z" fill="#50C800"/>
</g>
<defs>
<clipPath id="clip0_2335_1606">
<rect width="18" height="18" fill="white"/>
</clipPath>
</defs>
</svg>
